<?xml version="1.0" encoding="utf-8"?>
<!-- Generator: Adobe Illustrator 24.0.2, SVG Export Plug-In . SVG Version: 6.00 Build 0)  -->
<svg version="1.1" id="Ebene_1" xmlns="http://www.w3.org/2000/svg" xmlns:xlink="http://www.w3.org/1999/xlink" x="0px" y="0px"
	 viewBox="0 0 500 500" style="enable-background:new 0 0 500 500;" xml:space="preserve">
<style type="text/css">
	.st0{fill-rule:evenodd;clip-rule:evenodd;fill:url(#SVGID_1_);filter:url(#Adobe_OpacityMaskFilter);}
	.st1{mask:url(#id0_2_);fill-rule:evenodd;clip-rule:evenodd;fill:#E61E25;}
	.st2{fill-rule:evenodd;clip-rule:evenodd;fill:url(#SVGID_2_);filter:url(#Adobe_OpacityMaskFilter_1_);}
	.st3{mask:url(#id4_2_);fill-rule:evenodd;clip-rule:evenodd;fill:#E61E25;}
	.st4{fill-rule:evenodd;clip-rule:evenodd;fill:url(#SVGID_3_);filter:url(#Adobe_OpacityMaskFilter_2_);}
	.st5{mask:url(#id2_2_);fill-rule:evenodd;clip-rule:evenodd;fill:#FF0013;}
	.st6{fill-rule:evenodd;clip-rule:evenodd;fill:url(#SVGID_4_);filter:url(#Adobe_OpacityMaskFilter_3_);}
	.st7{mask:url(#id6_2_);fill-rule:evenodd;clip-rule:evenodd;fill:#E61E25;}
</style>
<image style="overflow:visible;" width="2001" height="1578" xlink:href="D1B2808A.png"  transform="matrix(0.24 0 0 0.24 7.92 47.52)">
</image>
<defs>
	<filter id="Adobe_OpacityMaskFilter" filterUnits="userSpaceOnUse" x="77" y="386.6" width="145.9" height="27.6">
		<feColorMatrix  type="matrix" values="1 0 0 0 0  0 1 0 0 0  0 0 1 0 0  0 0 0 1 0"/>
	</filter>
</defs>
<mask maskUnits="userSpaceOnUse" x="77" y="386.6" width="145.9" height="27.6" id="id0_2_">
	
		<linearGradient id="SVGID_1_" gradientUnits="userSpaceOnUse" x1="5646.2476" y1="-7824.2896" x2="6237.6577" y2="-8181.7598" gradientTransform="matrix(5.235023e-02 0 0 -5.235023e-02 -161.1005 -18.5819)">
		<stop  offset="0" style="stop-color:#FFFFFF"/>
		<stop  offset="1" style="stop-color:#FFFFFF;stop-opacity:0"/>
	</linearGradient>
	<rect x="76.5" y="386.1" class="st0" width="146.9" height="28.6"/>
</mask>
<path class="st1" d="M77,414.1c0,0,31.7-4.1,42.9-8.2s73.2,1.9,79.1,3c5.9,1.1,19,2.2,22.4,1c3.4-1.3,0.1-5.7,0.1-5.7
	s-12.8-3.7-72.3-11.6c0,0-34.7-11.1-53.6-3.5l-17.6,9.4L77,414.1z"/>
<defs>
	<filter id="Adobe_OpacityMaskFilter_1_" filterUnits="userSpaceOnUse" x="21.8" y="47.7" width="57" height="307.5">
		<feColorMatrix  type="matrix" values="1 0 0 0 0  0 1 0 0 0  0 0 1 0 0  0 0 0 1 0"/>
	</filter>
</defs>
<mask maskUnits="userSpaceOnUse" x="21.8" y="47.7" width="57" height="307.5" id="id4_2_">
	
		<linearGradient id="SVGID_2_" gradientUnits="userSpaceOnUse" x1="4212.6553" y1="-5623.0308" x2="3864.1404" y2="-2782.3706" gradientTransform="matrix(5.235023e-02 0 0 -5.235023e-02 -161.1005 -18.5819)">
		<stop  offset="0" style="stop-color:#FFFFFF"/>
		<stop  offset="1" style="stop-color:#FFFFFF;stop-opacity:0"/>
	</linearGradient>
	<rect x="21.3" y="47.2" class="st2" width="58.1" height="308.5"/>
</mask>
<path class="st3" d="M66,57.2c0,0-5.6,76.6-1.7,106.8c3.9,30.2,7.3,61.5-1.1,109c-8.4,47.5,15.7,82.1,15.7,82.1H42l-13.4-2.8
	c0,0-14-17.9-1.7-55.9s14.5-87.2,9-140.3C30.2,103,33,47.7,33,47.7L66,57.2z"/>
<defs>
	<filter id="Adobe_OpacityMaskFilter_2_" filterUnits="userSpaceOnUse" x="71.3" y="36.8" width="29.1" height="258">
		<feColorMatrix  type="matrix" values="1 0 0 0 0  0 1 0 0 0  0 0 1 0 0  0 0 0 1 0"/>
	</filter>
</defs>
<mask maskUnits="userSpaceOnUse" x="71.3" y="36.8" width="29.1" height="258" id="id2_2_">
	
		<linearGradient id="SVGID_3_" gradientUnits="userSpaceOnUse" x1="5095.4102" y1="-4266.4751" x2="4337.1118" y2="-2776.4448" gradientTransform="matrix(5.235023e-02 0 0 -5.235023e-02 -161.1005 -18.5819)">
		<stop  offset="0" style="stop-color:#FFFFFF"/>
		<stop  offset="1" style="stop-color:#FFFFFF;stop-opacity:0"/>
	</linearGradient>
	<rect x="70.8" y="36.2" class="st4" width="30" height="259"/>
</mask>
<path class="st5" d="M71.3,45.5c0,0,9,119.6,8.1,156s-5.6,5.3-6.2,85l2.8,8.4l14.5-4.4l9.8-43.3c0,0-13.1-179.5-13.7-182.5
	c-0.5-3.1-4.7-27.7-4.7-27.7L71.3,45.5z"/>
<image style="overflow:visible;" width="189" height="69" xlink:href="D1B2808E.png"  transform="matrix(0.24 0 0 0.24 432.96 364.32)">
</image>
<image style="overflow:visible;" width="248" height="93" xlink:href="D1B28089.png"  transform="matrix(0.24 0 0 0.24 374.88 352.08)">
</image>
<image style="overflow:visible;" width="275" height="86" xlink:href="D1B2808B.png"  transform="matrix(0.24 0 0 0.24 373.92 362.88)">
</image>
<image style="overflow:visible;" width="241" height="89" xlink:href="D1B28088.png"  transform="matrix(0.24 0 0 0.24 368.88 372.96)">
</image>
<image style="overflow:visible;" width="490" height="273" xlink:href="D1B28096.png"  transform="matrix(0.24 0 0 0.24 257.76 301.2)">
</image>
<image style="overflow:visible;" width="196" height="70" xlink:href="D1B28099.png"  transform="matrix(0.24 0 0 0.24 360 387.6)">
</image>
<image style="overflow:visible;" width="103" height="49" xlink:href="D1B2809A.png"  transform="matrix(0.24 0 0 0.24 405.6 394.56)">
</image>
<image style="overflow:visible;" width="105" height="55" xlink:href="D1B28098.png"  transform="matrix(0.24 0 0 0.24 424.8 383.04)">
</image>
<image style="overflow:visible;" width="98" height="39" xlink:href="4ECC944D.png"  transform="matrix(0.24 0 0 0.24 429.12 398.64)">
</image>
<image style="overflow:visible;" width="92" height="42" xlink:href="4ECC9443.png"  transform="matrix(0.24 0 0 0.24 446.64 389.28)">
</image>
<image style="overflow:visible;" width="113" height="63" xlink:href="4ECC9445.png"  transform="matrix(0.24 0 0 0.24 437.28 374.88)">
</image>
<image style="overflow:visible;" width="67" height="34" xlink:href="4ECC9447.png"  transform="matrix(0.24 0 0 0.24 462.24 383.28)">
</image>
<image style="overflow:visible;" width="170" height="87" xlink:href="4ECC9444.png"  transform="matrix(0.24 0 0 0.24 220.32 285.84)">
</image>
<image style="overflow:visible;" width="557" height="324" xlink:href="4ECC945C.png"  transform="matrix(0.24 0 0 0.24 241.68 300)">
</image>
<image style="overflow:visible;" width="568" height="310" xlink:href="4ECC945D.png"  transform="matrix(0.24 0 0 0.24 236.16 316.8)">
</image>
<image style="overflow:visible;" width="583" height="272" xlink:href="4ECC945F.png"  transform="matrix(0.24 0 0 0.24 221.52 336)">
</image>
<image style="overflow:visible;" width="161" height="123" xlink:href="4ECC945B.png"  transform="matrix(0.24 0 0 0.24 211.2 286.08)">
</image>
<image style="overflow:visible;" width="198" height="151" xlink:href="4ECC9446.png"  transform="matrix(0.24 0 0 0.24 198.48 302.16)">
</image>
<image style="overflow:visible;" width="202" height="170" xlink:href="4ECC9478.png"  transform="matrix(0.24 0 0 0.24 172.08 281.52)">
</image>
<image style="overflow:visible;" width="257" height="242" xlink:href="4ECC947B.png"  transform="matrix(0.24 0 0 0.24 170.16 318.96)">
</image>
<image style="overflow:visible;" width="653" height="422" xlink:href="4ECC9479.png"  transform="matrix(0.24 0 0 0.24 17.76 312.48)">
</image>
<image style="overflow:visible;" width="601" height="314" xlink:href="4ECC9477.png"  transform="matrix(0.24 0 0 0.24 50.16 264.24)">
</image>
<image style="overflow:visible;" width="301" height="985" xlink:href="4ECC9468.png"  transform="matrix(0.24 0 0 0.24 77.76 47.52)">
</image>
<image style="overflow:visible;" width="203" height="1069" xlink:href="4ECC946B.png"  transform="matrix(0.24 0 0 0.24 94.32 47.52)">
</image>
<image style="overflow:visible;" width="604" height="235" xlink:href="4ECC9469.png"  transform="matrix(0.24 0 0 0.24 194.88 352.56)">
</image>
<image style="overflow:visible;" width="87" height="62" xlink:href="4ECC946F.png"  transform="matrix(0.24 0 0 0.24 380.64 398.64)">
</image>
<image style="overflow:visible;" width="204" height="89" xlink:href="4ECC946A.png"  transform="matrix(0.24 0 0 0.24 333.84 390.72)">
</image>
<image style="overflow:visible;" width="87" height="49" xlink:href="4ECC9455.png"  transform="matrix(0.24 0 0 0.24 401.28 402.96)">
</image>
<defs>
	<filter id="Adobe_OpacityMaskFilter_3_" filterUnits="userSpaceOnUse" x="100.3" y="325.8" width="159.2" height="70.1">
		<feColorMatrix  type="matrix" values="1 0 0 0 0  0 1 0 0 0  0 0 1 0 0  0 0 0 1 0"/>
	</filter>
</defs>
<mask maskUnits="userSpaceOnUse" x="100.3" y="325.8" width="159.2" height="70.1" id="id6_2_">
	
		<linearGradient id="SVGID_4_" gradientUnits="userSpaceOnUse" x1="6061.3145" y1="-6851.5234" x2="6966.7744" y2="-7645.5137" gradientTransform="matrix(5.235023e-02 0 0 -5.235023e-02 -161.1005 -18.5819)">
		<stop  offset="0" style="stop-color:#FFFFFF"/>
		<stop  offset="1" style="stop-color:#FFFFFF;stop-opacity:0"/>
	</linearGradient>
	<rect x="99.8" y="325.3" class="st6" width="160.2" height="71.1"/>
</mask>
<path class="st7" d="M100.3,325.8c0,0,0.5,19.1,21,18.4c20.6-0.7,48.3,28.4,48.3,28.4s29.3,26.4,43.9,23c14.7-3.4,24-10.4,34-7.7
	c10,2.7,12,3.5,12,3.5s-14.1-11.8-21.3-8.4c-7.1,3.5-28,9.8-37.6,4.1c-9.5-5.7-27.3-20.8-49.4-39.1
	C129.3,329.6,117.3,346.9,100.3,325.8z"/>
</svg>
